<svg width="24" height="24" viewBox="0 0 24 24" fill="none" xmlns="http://www.w3.org/2000/svg">
<g clip-path="url(#clip0_1092_870)">
<path d="M12 23.5C18.3513 23.5 23.5 18.3513 23.5 12C23.5 5.64873 18.3513 0.5 12 0.5C5.64873 0.5 0.5 5.64873 0.5 12C0.5 18.3513 5.64873 23.5 12 23.5Z" fill="white" stroke="#2E5902"/>
<path d="M17 5V14.3333H13.4286C13.4121 11.4703 13.56 8.57311 17 5ZM17 14.3333V19H16.2857V16.6667M7 5.77778V8.11111C7 8.72995 7.22576 9.32344 7.62763 9.76103C8.02949 10.1986 8.57454 10.4444 9.14286 10.4444C9.71118 10.4444 10.2562 10.1986 10.6581 9.76103C11.0599 9.32344 11.2857 8.72995 11.2857 8.11111V5.77778" fill="white"/>
<path d="M17 14.3333V5C13.56 8.57311 13.4121 11.4703 13.4286 14.3333H17ZM17 14.3333V19H16.2857V16.6667M9.14286 5.77778V19M7 5.77778V8.11111C7 8.72995 7.22576 9.32344 7.62763 9.76103C8.02949 10.1986 8.57454 10.4444 9.14286 10.4444C9.71118 10.4444 10.2562 10.1986 10.6581 9.76103C11.0599 9.32344 11.2857 8.72995 11.2857 8.11111V5.77778" stroke="#2E5902" stroke-width="1.5" stroke-linecap="round" stroke-linejoin="round"/>
</g>
<defs>
<clipPath id="clip0_1092_870">
<rect width="24" height="24" fill="white"/>
</clipPath>
</defs>
</svg>
