<svg width="24" height="24" viewBox="0 0 24 24" fill="none" xmlns="http://www.w3.org/2000/svg">
<path d="M6 6.87563C6.00001 6.77296 6.01992 6.67132 6.05855 6.57667C6.09719 6.48201 6.15377 6.39624 6.225 6.32437C7.04238 5.49952 8.13439 5.02631 9.27874 5.00106C10.4231 4.97582 11.5338 5.40044 12.3847 6.18848L12.648 6.44172C13.1951 6.93515 13.8977 7.20718 14.625 7.20718C15.3523 7.20718 16.0549 6.93515 16.602 6.44172L16.7887 6.26646C17.2463 5.89355 17.934 6.19157 17.9963 6.78838L18 6.87563V13.8243C18 13.9269 17.9801 14.0286 17.9414 14.1232C17.9028 14.2179 17.8462 14.3037 17.775 14.3755C16.9576 15.2004 15.8656 15.6736 14.7213 15.6988C13.5769 15.7241 12.4662 15.2995 11.6153 14.5114L11.352 14.2582C10.8222 13.7803 10.1458 13.5096 9.44154 13.4935C8.73725 13.4774 8.04993 13.7169 7.5 14.1702V19.2288C7.49979 19.4256 7.42659 19.6148 7.29536 19.7579C7.16414 19.901 6.98479 19.9871 6.79395 19.9987C6.60312 20.0102 6.41522 19.9463 6.26863 19.82C6.12204 19.6937 6.02783 19.5145 6.00525 19.3191L6 19.2288V6.87563Z" fill="#2E5902"/>
</svg>
