<svg width="24" height="25" viewBox="0 0 24 25" fill="none" xmlns="http://www.w3.org/2000/svg">
<g clip-path="url(#clip0_1092_933)">
<path d="M12 24C18.3513 24 23.5 18.8513 23.5 12.5C23.5 6.14873 18.3513 1 12 1C5.64873 1 0.5 6.14873 0.5 12.5C0.5 18.8513 5.64873 24 12 24Z" fill="white" stroke="#2E5902"/>
<path d="M6 7.37563C6.00001 7.27296 6.01992 7.17132 6.05855 7.07667C6.09719 6.98201 6.15377 6.89624 6.225 6.82437C7.04238 5.99952 8.13439 5.52631 9.27874 5.50106C10.4231 5.47582 11.5338 5.90044 12.3847 6.68848L12.648 6.94172C13.1951 7.43515 13.8977 7.70718 14.625 7.70718C15.3523 7.70718 16.0549 7.43515 16.602 6.94172L16.7888 6.76646C17.2463 6.39355 17.934 6.69157 17.9963 7.28838L18 7.37563V14.3243C18 14.4269 17.9801 14.5286 17.9414 14.6232C17.9028 14.7179 17.8462 14.8037 17.775 14.8755C16.9576 15.7004 15.8656 16.1736 14.7213 16.1988C13.5769 16.2241 12.4662 15.7995 11.6153 15.0114L11.352 14.7582C10.8222 14.2803 10.1458 14.0096 9.44154 13.9935C8.73725 13.9774 8.04993 14.2169 7.5 14.6702V19.7288C7.49979 19.9256 7.42659 20.1148 7.29536 20.2579C7.16414 20.401 6.98479 20.4871 6.79395 20.4987C6.60312 20.5102 6.41522 20.4463 6.26863 20.32C6.12204 20.1937 6.02783 20.0145 6.00525 19.8191L6 19.7288V7.37563Z" fill="#2E5902"/>
</g>
<defs>
<clipPath id="clip0_1092_933">
<rect width="24" height="24" fill="white" transform="translate(0 0.5)"/>
</clipPath>
</defs>
</svg>
