<svg width="24" height="24" viewBox="0 0 24 24" fill="none" xmlns="http://www.w3.org/2000/svg">
<path d="M14.4 5C14.8037 4.99988 15.1925 5.14809 15.4884 5.41494C15.7844 5.68179 15.9657 6.04755 15.996 6.43889L16 6.55556C16 6.74606 16.072 6.92993 16.2022 7.07229C16.3324 7.21465 16.5118 7.3056 16.7064 7.32789L16.8 7.33333H17.6C18.2122 7.3333 18.8012 7.5607 19.2466 7.969C19.692 8.3773 19.9601 8.93564 19.996 9.52978L20 9.66667V16.6667C20 17.2618 19.7661 17.8345 19.3462 18.2675C18.9262 18.7006 18.3519 18.9612 17.7408 18.9961L17.6 19H6.4C5.78783 19 5.19879 18.7726 4.75339 18.3643C4.30799 17.956 4.03991 17.3977 4.004 16.8036L4 16.6667V9.66667C3.99997 9.0715 4.23386 8.49882 4.65383 8.0658C5.07379 7.63277 5.64809 7.37214 6.2592 7.33722L6.4 7.33333H7.2C7.41217 7.33333 7.61566 7.25139 7.76569 7.10553C7.91571 6.95967 8 6.76184 8 6.55556C7.99987 6.16311 8.15233 5.78511 8.4268 5.49735C8.70127 5.20959 9.07748 5.03332 9.48 5.00389L9.6 5H14.4ZM12 10.4444C11.4053 10.4444 10.8317 10.659 10.3905 11.0467C9.9493 11.4345 9.67187 11.9676 9.612 12.5429L9.6032 12.6611L9.6 12.7778L9.6032 12.8944C9.62668 13.3504 9.78722 13.7896 10.0649 14.1578C10.3427 14.5259 10.7253 14.8067 11.1656 14.9655C11.6059 15.1242 12.0844 15.1539 12.5418 15.0509C12.9993 14.9479 13.4156 14.7166 13.7392 14.3858C14.0628 14.055 14.2795 13.6392 14.3625 13.1899C14.4454 12.7405 14.3909 12.2774 14.2058 11.8578C14.0207 11.4383 13.713 11.0807 13.3209 10.8295C12.9288 10.5783 12.4696 10.4444 12 10.4444Z" fill="#2E5902"/>
</svg>
