<svg width="24" height="24" viewBox="0 0 24 24" fill="none" xmlns="http://www.w3.org/2000/svg">
<g clip-path="url(#clip0_1092_884)">
<path d="M12 23.5C18.3513 23.5 23.5 18.3513 23.5 12C23.5 5.64873 18.3513 0.5 12 0.5C5.64873 0.5 0.5 5.64873 0.5 12C0.5 18.3513 5.64873 23.5 12 23.5Z" fill="white" stroke="#2E5902"/>
<path d="M6 18.3327C6 18.7747 6.17559 19.1986 6.48816 19.5112C6.80072 19.8237 7.22464 19.9993 7.66667 19.9993C8.10869 19.9993 8.53262 19.8237 8.84518 19.5112C9.15774 19.1986 9.33333 18.7747 9.33333 18.3327C9.33333 17.8906 9.15774 17.4667 8.84518 17.1542C8.53262 16.8416 8.10869 16.666 7.66667 16.666C7.22464 16.666 6.80072 16.8416 6.48816 17.1542C6.17559 17.4667 6 17.8906 6 18.3327Z" stroke="#2E5902" stroke-linecap="round" stroke-linejoin="round"/>
<path d="M14.1667 18.3327C14.1667 18.7747 14.3423 19.1986 14.6549 19.5112C14.9675 19.8237 15.3914 19.9993 15.8334 19.9993C16.2754 19.9993 16.6994 19.8237 17.0119 19.5112C17.3245 19.1986 17.5001 18.7747 17.5001 18.3327C17.5001 17.8906 17.3245 17.4667 17.0119 17.1542C16.6994 16.8416 16.2754 16.666 15.8334 16.666C15.3914 16.666 14.9675 16.8416 14.6549 17.1542C14.3423 17.4667 14.1667 17.8906 14.1667 18.3327Z" stroke="#2E5902" stroke-linecap="round" stroke-linejoin="round"/>
<path d="M16 16H7.53846V4H6" stroke="#2E5902" stroke-linecap="round" stroke-linejoin="round"/>
<path d="M8 7L19 7.75L18.2143 13H8" fill="#2E5902"/>
<path d="M8 7L19 7.75L18.2143 13H8" stroke="#2E5902" stroke-linecap="round" stroke-linejoin="round"/>
</g>
<defs>
<clipPath id="clip0_1092_884">
<rect width="24" height="24" fill="white"/>
</clipPath>
</defs>
</svg>
