<svg width="24" height="24" viewBox="0 0 24 24" fill="none" xmlns="http://www.w3.org/2000/svg">
<path d="M5 18.3327C5 18.7747 5.17559 19.1986 5.48816 19.5112C5.80072 19.8237 6.22464 19.9993 6.66667 19.9993C7.10869 19.9993 7.53262 19.8237 7.84518 19.5112C8.15774 19.1986 8.33333 18.7747 8.33333 18.3327C8.33333 17.8906 8.15774 17.4667 7.84518 17.1542C7.53262 16.8416 7.10869 16.666 6.66667 16.666C6.22464 16.666 5.80072 16.8416 5.48816 17.1542C5.17559 17.4667 5 17.8906 5 18.3327Z" stroke="#2E5902" stroke-linecap="round" stroke-linejoin="round"/>
<path d="M13.167 18.3327C13.167 18.7747 13.3426 19.1986 13.6552 19.5112C13.9678 19.8237 14.3917 19.9993 14.8337 19.9993C15.2757 19.9993 15.6997 19.8237 16.0122 19.5112C16.3248 19.1986 16.5004 18.7747 16.5004 18.3327C16.5004 17.8906 16.3248 17.4667 16.0122 17.1542C15.6997 16.8416 15.2757 16.666 14.8337 16.666C14.3917 16.666 13.9678 16.8416 13.6552 17.1542C13.3426 17.4667 13.167 17.8906 13.167 18.3327Z" stroke="#2E5902" stroke-linecap="round" stroke-linejoin="round"/>
<path d="M15 16H6.53846V4H5" stroke="#2E5902" stroke-linecap="round" stroke-linejoin="round"/>
<path d="M7 7L18 7.75L17.2143 13H7" fill="#2E5902"/>
<path d="M7 7L18 7.75L17.2143 13H7" stroke="#2E5902" stroke-linecap="round" stroke-linejoin="round"/>
</svg>
