<svg width="24" height="24" viewBox="0 0 24 24" fill="none" xmlns="http://www.w3.org/2000/svg">
<path d="M17.9907 5.25L13.1157 18.75C13.0827 18.8218 13.0299 18.8827 12.9634 18.9253C12.897 18.968 12.8196 18.9907 12.7407 18.9907C12.6617 18.9907 12.5843 18.968 12.5179 18.9253C12.4514 18.8827 12.3986 18.8218 12.3657 18.75L9.74065 13.5L4.49065 10.875C4.41885 10.8421 4.358 10.7893 4.31534 10.7228C4.27268 10.6563 4.25 10.579 4.25 10.5C4.25 10.421 4.27268 10.3437 4.31534 10.2772C4.358 10.2107 4.41885 10.1579 4.49065 10.125L17.9907 5.25Z" fill="#2E5902" stroke="#2E5902" stroke-width="1.5" stroke-linecap="round" stroke-linejoin="round"/>
<path d="M10.251 12.7515L17.001 6.00146" stroke="white" stroke-width="0.5" stroke-linecap="round" stroke-linejoin="round"/>
</svg>
