<svg width="24" height="25" viewBox="0 0 24 25" fill="none" xmlns="http://www.w3.org/2000/svg">
<g clip-path="url(#clip0_1092_936)">
<path d="M12 24C18.3513 24 23.5 18.8513 23.5 12.5C23.5 6.14873 18.3513 1 12 1C5.64873 1 0.5 6.14873 0.5 12.5C0.5 18.8513 5.64873 24 12 24Z" fill="white" stroke="#2E5902"/>
<path d="M17.9907 5.75L13.1157 19.25C13.0827 19.3218 13.0299 19.3827 12.9634 19.4253C12.897 19.468 12.8196 19.4907 12.7407 19.4907C12.6617 19.4907 12.5843 19.468 12.5179 19.4253C12.4514 19.3827 12.3986 19.3218 12.3657 19.25L9.74065 14L4.49065 11.375C4.41885 11.3421 4.358 11.2893 4.31534 11.2228C4.27268 11.1563 4.25 11.079 4.25 11C4.25 10.921 4.27268 10.8437 4.31534 10.7772C4.358 10.7107 4.41885 10.6579 4.49065 10.625L17.9907 5.75Z" fill="#2E5902" stroke="#2E5902" stroke-width="1.5" stroke-linecap="round" stroke-linejoin="round"/>
<path d="M10.2507 13.251L17.0007 6.50098" stroke="white" stroke-width="0.5" stroke-linecap="round" stroke-linejoin="round"/>
</g>
<defs>
<clipPath id="clip0_1092_936">
<rect width="24" height="24" fill="white" transform="translate(0 0.5)"/>
</clipPath>
</defs>
</svg>
