<svg width="34" height="34" viewBox="0 0 34 34" fill="none" xmlns="http://www.w3.org/2000/svg">
<g clip-path="url(#clip0_879_794)">
<rect width="34" height="34" rx="17" fill="#B5BF69"/>
<path d="M11.3333 13.9648C11.3333 15.5213 11.9517 17.0141 13.0523 18.1148C14.153 19.2155 15.6458 19.8338 17.2024 19.8338C18.7589 19.8338 20.2518 19.2155 21.3524 18.1148C22.4531 17.0141 23.0714 15.5213 23.0714 13.9648C23.0714 12.4082 22.4531 10.9154 21.3524 9.81471C20.2518 8.71405 18.7589 8.0957 17.2024 8.0957C15.6458 8.0957 14.153 8.71405 13.0523 9.81471C11.9517 10.9154 11.3333 12.4082 11.3333 13.9648Z" fill="#2E5902" stroke="#2E5902" stroke-width="1.5" stroke-linecap="round" stroke-linejoin="round"/>
<path d="M1.61905 33.9783C2.2717 30.9418 3.60718 28.2802 5.42736 26.3885C7.24755 24.4968 9.45547 23.4756 11.7236 23.4766H22.2711C24.5422 23.4755 26.7528 24.4991 28.5743 26.3952C30.3958 28.2912 31.7309 30.9585 32.381 34.0004" fill="#2E5902"/>
<path d="M1.61905 33.9783C2.2717 30.9418 3.60718 28.2802 5.42736 26.3885C7.24755 24.4968 9.45547 23.4756 11.7236 23.4766H22.2711C24.5422 23.4755 26.7528 24.4991 28.5743 26.3952C30.3958 28.2912 31.7309 30.9585 32.381 34.0004" stroke="#2E5902" stroke-width="1.5" stroke-linecap="round" stroke-linejoin="round"/>
</g>
<defs>
<clipPath id="clip0_879_794">
<rect width="34" height="34" rx="17" fill="white"/>
</clipPath>
</defs>
</svg>
