<svg width="74" height="59" viewBox="0 0 74 59" fill="none" xmlns="http://www.w3.org/2000/svg">
<g clip-path="url(#clip0_2151_4225)">
<path d="M22.9444 43.5952L34.4278 0.0966761L34.3219 0L11.5173 5.09203L0 48.7184L22.7889 43.6299L22.9444 43.5952Z" fill="#A3BF3B"/>
<path d="M51.23 15.5564L51.2577 15.4511L34.4283 0.0966797L22.9449 43.5952L22.9072 43.7374L39.636 59L39.7688 58.9703L51.23 15.5564Z" fill="#2E5902"/>
<path d="M62.539 53.8856L74.0003 10.4717L51.3448 15.5304L51.2298 15.556L39.7686 58.97L62.539 53.8856Z" fill="#BFBB78"/>
<path d="M31.6988 13.3779L24.002 14.8656C22.8977 15.066 21.8715 15.7069 21.2007 16.729C19.9018 18.7083 20.4286 21.3707 22.3773 22.6755C23.3487 23.3259 24.4903 23.5162 25.5517 23.2983L25.5519 23.2992L33.2488 21.8115L31.6988 13.3779Z" fill="#2E5902"/>
<path d="M51.2427 27.2236L43.5459 28.7113C42.4417 28.9117 41.4154 29.5526 40.7446 30.5747C39.4458 32.554 39.9725 35.2164 41.9213 36.5212C42.8928 37.1716 44.0343 37.362 45.0958 37.144L52.7927 35.6572L51.2427 27.2236Z" fill="#BFBB78"/>
<path d="M22.4348 32.6356L30.1315 31.148C31.2357 30.9476 32.2621 30.3067 32.9328 29.2846C34.2317 27.3053 33.7049 24.643 31.7562 23.338C30.7846 22.6876 29.6432 22.4973 28.5817 22.7152L28.5815 22.7144L20.8848 24.202L22.4348 32.6356Z" fill="#A3BF3B"/>
<path d="M41.8389 46.5067L49.5358 45.019C50.64 44.8187 51.6662 44.1778 52.337 43.1557C53.636 41.1763 53.1091 38.5139 51.1604 37.2091C50.1889 36.5587 49.0475 36.3683 47.986 36.5863L47.9858 36.5855L40.2891 38.0731L41.8389 46.5067Z" fill="#2E5902"/>
</g>
<defs>
<clipPath id="clip0_2151_4225">
<rect width="74" height="59" fill="white"/>
</clipPath>
</defs>
</svg>
