<svg width="92" height="28" viewBox="0 0 92 28" fill="none" xmlns="http://www.w3.org/2000/svg">
<g clip-path="url(#clip0_2151_4228)">
<path d="M11.2369 20.6893L16.8609 0.0458802L16.8091 0L5.64055 2.41655L0 23.1206L11.2369 20.6893Z" fill="#A3BF3B"/>
<path d="M25.0898 7.38369L25.1033 7.33371L16.8612 0.046875L11.2372 20.6903L11.2188 20.7578L19.4116 28.001L19.4767 27.9869L25.0898 7.38369Z" fill="#2E5902"/>
<path d="M30.6284 25.572L36.2415 4.96875L25.0897 7.38168L19.4766 27.9849L30.6284 25.572Z" fill="#BFBB78"/>
<path d="M15.5245 6.34766L11.755 7.05368C11.2142 7.1488 10.7116 7.45294 10.3831 7.93801C9.74696 8.87734 10.0049 10.1408 10.9593 10.76C11.4351 11.0687 11.9942 11.159 12.514 11.0556L16.2836 10.35L15.5245 6.34766Z" fill="#2E5902"/>
<path d="M25.0957 12.918L21.3263 13.624C20.7855 13.7191 20.2828 14.0232 19.9543 14.5083C19.3182 15.4476 19.5762 16.7111 20.5306 17.3303C21.0064 17.639 21.5654 17.7294 22.0853 17.6259L25.8548 16.9203L25.0957 12.918Z" fill="#BFBB78"/>
<path d="M10.9876 15.4872L14.7571 14.7813C15.2978 14.6862 15.8005 14.382 16.129 13.897C16.7651 12.9576 16.5071 11.6941 15.5527 11.0749C15.0769 10.7662 14.5179 10.6758 13.998 10.7793L10.2285 11.4849L10.9876 15.4872Z" fill="#A3BF3B"/>
<path d="M20.4905 22.0693L24.26 21.3633C24.8008 21.2682 25.3034 20.9641 25.6319 20.479C26.268 19.5396 26.01 18.2761 25.0556 17.6569C24.5799 17.3482 24.0208 17.2579 23.5009 17.3613L19.7314 18.0669L20.4905 22.0693Z" fill="#2E5902"/>
<path d="M41.918 2.51995H55.057V5.69999H45.5694V13.974C45.5694 15.1518 45.8487 15.9664 46.4074 16.4179C46.986 16.8694 47.8739 17.0952 49.0711 17.0952C51.0464 17.0952 52.8023 16.9479 54.3386 16.6535C55.895 16.3394 57.3016 15.8683 58.5587 15.2401V0.105469H62.1203V10.1462H66.6097C66.6097 10.1462 66.6097 12.0484 66.6097 13.2673H62.1203V27.7836H58.5587V18.4496C57.3615 19.0189 55.9449 19.4606 54.3087 19.7746C52.6726 20.0887 50.797 20.2458 48.682 20.2458C47.7243 20.2458 46.8264 20.1378 45.9884 19.9219C45.1703 19.7059 44.462 19.382 43.8634 18.9502C43.2648 18.4987 42.7859 17.9294 42.4268 17.2424C42.0876 16.5553 41.918 15.7407 41.918 14.7985V2.51995Z" fill="black"/>
<path d="M91.1485 14.5923H87.5869V0.105469H91.1485V14.5923ZM91.1485 27.1947H77.7402C76.543 27.1947 75.5753 26.9395 74.8371 26.4292C74.1188 25.9188 73.7596 25.163 73.7596 24.1619V16.1824H91.1485V27.1947ZM87.5869 24.0736V19.333H77.3212V23.2491C77.3212 23.7988 77.6205 24.0736 78.2191 24.0736H87.5869ZM73.9392 1.22437V9.55727C73.9392 10.1069 74.2285 10.3817 74.8071 10.3817H85.462V13.444H74.2983C73.1012 13.444 72.1434 13.1888 71.4251 12.6784C70.7068 12.1484 70.3477 11.3829 70.3477 10.3817V1.22437H73.9392Z" fill="black"/>
</g>
<defs>
<clipPath id="clip0_2151_4228">
<rect width="92" height="28" fill="white"/>
</clipPath>
</defs>
</svg>
