<svg width="92" height="28" viewBox="0 0 92 28" fill="none" xmlns="http://www.w3.org/2000/svg">
<g clip-path="url(#clip0_1637_3533)">
<path d="M11.2369 20.6893L16.8609 0.0458802L16.8091 0L5.64055 2.41655L0 23.1206L11.2369 20.6893Z" fill="#A3BF3B"/>
<path d="M25.0898 7.38272L25.1033 7.33274L16.8612 0.0458984L11.2372 20.6893L11.2188 20.7568L19.4116 28L19.4767 27.9859L25.0898 7.38272Z" fill="#2E5902"/>
<path d="M30.6284 25.573L36.2415 4.96973L25.0897 7.38266L19.4766 27.9859L30.6284 25.573Z" fill="#BFBB78"/>
<path d="M15.5245 6.34863L11.755 7.05465C11.2142 7.14977 10.7116 7.45391 10.3831 7.93898C9.74696 8.87831 10.0049 10.1418 10.9593 10.761C11.4351 11.0697 11.9942 11.16 12.514 11.0566L16.2836 10.351L15.5245 6.34863Z" fill="#2E5902"/>
<path d="M25.0957 12.9199L21.3263 13.6259C20.7855 13.721 20.2828 14.0251 19.9543 14.5102C19.3182 15.4495 19.5762 16.713 20.5306 17.3322C21.0064 17.6409 21.5654 17.7313 22.0853 17.6278L25.8548 16.9222L25.0957 12.9199Z" fill="#BFBB78"/>
<path d="M10.9876 15.4881L14.7571 14.7822C15.2978 14.6871 15.8005 14.3829 16.129 13.8979C16.7651 12.9585 16.5071 11.695 15.5527 11.0758C15.0769 10.7671 14.5179 10.6767 13.998 10.7802L10.2285 11.4858L10.9876 15.4881Z" fill="#A3BF3B"/>
<path d="M20.4905 22.0712L24.26 21.3652C24.8008 21.2701 25.3034 20.966 25.6319 20.4809C26.268 19.5415 26.01 18.278 25.0556 17.6588C24.5799 17.3501 24.0208 17.2598 23.5009 17.3632L19.7314 18.0688L20.4905 22.0712Z" fill="#2E5902"/>
<path d="M41.918 2.5219H55.057V5.70194H45.5694V13.9759C45.5694 15.1537 45.8487 15.9683 46.4074 16.4198C46.986 16.8713 47.8739 17.0971 49.0711 17.0971C51.0464 17.0971 52.8023 16.9498 54.3386 16.6554C55.895 16.3413 57.3016 15.8702 58.5587 15.242V0.107422H62.1203V10.1481H66.6097C66.6097 10.1481 66.6097 12.0503 66.6097 13.2692H62.1203V27.7855H58.5587V18.4515C57.3615 19.0208 55.9449 19.4625 54.3087 19.7765C52.6726 20.0906 50.797 20.2477 48.682 20.2477C47.7243 20.2477 46.8264 20.1397 45.9884 19.9238C45.1703 19.7078 44.462 19.3839 43.8634 18.9521C43.2648 18.5006 42.7859 17.9313 42.4268 17.2443C42.0876 16.5572 41.918 15.7426 41.918 14.8004V2.5219Z" fill="black"/>
<path d="M91.1485 14.5942H87.5869V0.107422H91.1485V14.5942ZM91.1485 27.1966H77.7402C76.543 27.1966 75.5753 26.9414 74.8371 26.4311C74.1188 25.9207 73.7596 25.1649 73.7596 24.1638V16.1843H91.1485V27.1966ZM87.5869 24.0755V19.3349H77.3212V23.251C77.3212 23.8007 77.6205 24.0755 78.2191 24.0755H87.5869ZM73.9392 1.22632V9.55922C73.9392 10.1088 74.2285 10.3836 74.8071 10.3836H85.462V13.4459H74.2983C73.1012 13.4459 72.1434 13.1907 71.4251 12.6803C70.7068 12.1503 70.3477 11.3848 70.3477 10.3836V1.22632H73.9392Z" fill="black"/>
</g>
<defs>
<clipPath id="clip0_1637_3533">
<rect width="92" height="28" fill="white"/>
</clipPath>
</defs>
</svg>
