<svg width="34" height="34" viewBox="0 0 34 34" fill="none" xmlns="http://www.w3.org/2000/svg">
<circle cx="17" cy="17" r="17" fill="#B5BF69"/>
<path d="M10.9948 10.0043C14.7787 7.27182 20.1867 7.49516 23.6852 10.534C27.2448 13.6243 27.7312 18.6752 24.8035 22.2912C22.0446 25.6977 17.0716 26.8203 12.9304 25.0632L12.7052 24.9634L8.45829 25.8835L8.38548 25.8963L8.2787 25.9052L8.16901 25.9013L8.1263 25.8963L8.01952 25.8766L7.91759 25.843L7.82052 25.7995L7.74674 25.758L7.6419 25.6819L7.56327 25.6088L7.49241 25.5267L7.44096 25.4526L7.37786 25.339L7.33709 25.2342L7.307 25.1225L7.29438 25.0484L7.28564 24.9397L7.28953 24.828L7.29438 24.7846L7.3138 24.6758L7.33515 24.6047L8.45149 21.1943L8.43014 21.1587C6.28482 17.4557 7.25652 12.8653 10.7706 10.1713L10.9938 10.0053L10.9948 10.0043Z" fill="#2E5902"/>
</svg>
