<svg width="24" height="25" viewBox="0 0 24 25" fill="none" xmlns="http://www.w3.org/2000/svg">
<path d="M12 24C18.3513 24 23.5 18.8513 23.5 12.5C23.5 6.14873 18.3513 1 12 1C5.64873 1 0.5 6.14873 0.5 12.5C0.5 18.8513 5.64873 24 12 24Z" fill="#2E5902"/>
<path d="M14.4 5.5C14.8037 5.49988 15.1925 5.64809 15.4884 5.91494C15.7844 6.18179 15.9657 6.54755 15.996 6.93889L16 7.05556C16 7.24606 16.072 7.42993 16.2022 7.57229C16.3324 7.71465 16.5118 7.8056 16.7064 7.82789L16.8 7.83333H17.6C18.2122 7.8333 18.8012 8.0607 19.2466 8.469C19.692 8.8773 19.9601 9.43564 19.996 10.0298L20 10.1667V17.1667C20 17.7618 19.7661 18.3345 19.3462 18.7675C18.9262 19.2006 18.3519 19.4612 17.7408 19.4961L17.6 19.5H6.4C5.78783 19.5 5.19879 19.2726 4.75339 18.8643C4.30799 18.456 4.03991 17.8977 4.004 17.3036L4 17.1667V10.1667C3.99997 9.5715 4.23386 8.99882 4.65383 8.5658C5.07379 8.13277 5.64809 7.87214 6.2592 7.83722L6.4 7.83333H7.2C7.41217 7.83333 7.61566 7.75139 7.76569 7.60553C7.91571 7.45967 8 7.26184 8 7.05556C7.99987 6.66311 8.15232 6.28511 8.4268 5.99735C8.70127 5.70959 9.07748 5.53332 9.48 5.50389L9.6 5.5H14.4ZM12 10.9444C11.4053 10.9444 10.8317 11.159 10.3905 11.5467C9.9493 11.9345 9.67187 12.4676 9.612 13.0429L9.6032 13.1611L9.6 13.2778L9.6032 13.3944C9.62668 13.8504 9.78722 14.2896 10.0649 14.6578C10.3427 15.0259 10.7253 15.3067 11.1656 15.4655C11.6059 15.6242 12.0844 15.6539 12.5418 15.5509C12.9993 15.4479 13.4156 15.2166 13.7392 14.8858C14.0628 14.555 14.2795 14.1392 14.3625 13.6899C14.4454 13.2405 14.3909 12.7774 14.2058 12.3578C14.0207 11.9383 13.713 11.5807 13.3209 11.3295C12.9288 11.0783 12.4696 10.9444 12 10.9444Z" fill="white"/>
</svg>
