<svg width="20" height="20" viewBox="0 0 20 20" fill="none" xmlns="http://www.w3.org/2000/svg">
<g clip-path="url(#clip0_3317_4073)">
<path d="M10.0003 19.5827C15.2931 19.5827 19.5837 15.2921 19.5837 9.99935C19.5837 4.70662 15.2931 0.416016 10.0003 0.416016C4.7076 0.416016 0.416992 4.70662 0.416992 9.99935C0.416992 15.2921 4.7076 19.5827 10.0003 19.5827Z" fill="white"/>
<path d="M14.1663 4.16602V11.9438H11.1902C11.1764 9.55793 11.2997 7.14361 14.1663 4.16602ZM14.1663 11.9438V15.8327H13.5711V13.8883M5.83301 4.81417V6.75861C5.83301 7.27431 6.02114 7.76888 6.35603 8.13354C6.69092 8.49818 7.14512 8.70302 7.61872 8.70302C8.09232 8.70302 8.54651 8.49818 8.88142 8.13354C9.21626 7.76888 9.40442 7.27431 9.40442 6.75861V4.81417" fill="white"/>
<path d="M14.1663 11.9438V4.16602C11.2997 7.14361 11.1764 9.55793 11.1902 11.9438H14.1663ZM14.1663 11.9438V15.8327H13.5711V13.8883M7.61872 4.81417V15.8327M5.83301 4.81417V6.75861C5.83301 7.27431 6.02114 7.76888 6.35603 8.13354C6.69092 8.49818 7.14512 8.70302 7.61872 8.70302C8.09232 8.70302 8.54651 8.49818 8.88142 8.13354C9.21626 7.76888 9.40442 7.27431 9.40442 6.75861V4.81417" stroke="#2E5902" stroke-width="1.5" stroke-linecap="round" stroke-linejoin="round"/>
</g>
<defs>
<clipPath id="clip0_3317_4073">
<rect width="20" height="20" fill="white"/>
</clipPath>
</defs>
</svg>
