<svg width="20" height="21" viewBox="0 0 20 21" fill="none" xmlns="http://www.w3.org/2000/svg">
<g clip-path="url(#clip0_3317_4087)">
<path d="M10.0003 20.0827C15.2931 20.0827 19.5837 15.7921 19.5837 10.4993C19.5837 5.20662 15.2931 0.916016 10.0003 0.916016C4.7076 0.916016 0.416992 5.20662 0.416992 10.4993C0.416992 15.7921 4.7076 20.0827 10.0003 20.0827Z" fill="white"/>
<path d="M5 6.22904C5.00001 6.14349 5.0166 6.05879 5.04879 5.97991C5.08099 5.90103 5.12814 5.82955 5.1875 5.76966C5.86865 5.08229 6.77866 4.68794 7.73228 4.6669C8.68592 4.64587 9.6115 4.99972 10.3206 5.65642L10.54 5.86745C10.9959 6.27864 11.5814 6.50534 12.1875 6.50534C12.7936 6.50534 13.3791 6.27864 13.835 5.86745L13.9907 5.7214C14.3719 5.41064 14.945 5.65899 14.9969 6.15634L15 6.22904V12.0196C15 12.1051 14.9834 12.1899 14.9512 12.2687C14.919 12.3476 14.8718 12.4191 14.8125 12.4789C14.1313 13.1664 13.2213 13.5607 12.2677 13.5817C11.3141 13.6028 10.3885 13.2489 9.67942 12.5922L9.46 12.3812C9.0185 11.9829 8.45483 11.7574 7.86795 11.7439C7.28104 11.7305 6.70827 11.9301 6.25 12.3079V16.5234C6.24982 16.6874 6.18883 16.845 6.07947 16.9643C5.97012 17.0835 5.82066 17.1553 5.66163 17.1649C5.5026 17.1745 5.34602 17.1213 5.22386 17.016C5.1017 16.9108 5.02319 16.7614 5.00437 16.5986L5 16.5234V6.22904Z" fill="#2E5902"/>
</g>
<defs>
<clipPath id="clip0_3317_4087">
<rect width="20" height="20" fill="white" transform="translate(0 0.5)"/>
</clipPath>
</defs>
</svg>
