<svg width="20" height="20" viewBox="0 0 20 20" fill="none" xmlns="http://www.w3.org/2000/svg">
<g clip-path="url(#clip0_3317_4084)">
<path d="M10.0003 19.5827C15.2931 19.5827 19.5837 15.2921 19.5837 9.99935C19.5837 4.70662 15.2931 0.416016 10.0003 0.416016C4.7076 0.416016 0.416992 4.70662 0.416992 9.99935C0.416992 15.2921 4.7076 19.5827 10.0003 19.5827Z" fill="white"/>
<path d="M11.9997 4.16602C12.3361 4.16592 12.6601 4.28942 12.9067 4.5118C13.1533 4.73417 13.3044 5.03897 13.3297 5.36509L13.333 5.46232C13.333 5.62107 13.393 5.77429 13.5015 5.89292C13.61 6.01156 13.7595 6.08735 13.9217 6.10592L13.9997 6.11046H14.6663C15.1765 6.11043 15.6673 6.29993 16.0385 6.64018C16.4097 6.98043 16.6331 7.44572 16.663 7.94083L16.6663 8.05491V13.8883C16.6663 14.3842 16.4714 14.8614 16.1215 15.2223C15.7715 15.5832 15.2929 15.8003 14.7837 15.8294L14.6663 15.8327H5.33301C4.82287 15.8327 4.332 15.6432 3.96083 15.3029C3.58967 14.9627 3.36627 14.4974 3.33634 14.0023L3.33301 13.8883V8.05491C3.33298 7.55893 3.52789 7.0817 3.87787 6.72085C4.22783 6.35999 4.70642 6.1428 5.21567 6.1137L5.33301 6.11046H5.99967C6.17648 6.11046 6.34606 6.04217 6.47108 5.92062C6.5961 5.79907 6.66634 5.63422 6.66634 5.46232C6.66623 5.13527 6.79327 4.82027 7.02201 4.58047C7.25073 4.34067 7.56424 4.19378 7.89967 4.16926L7.99967 4.16602H11.9997ZM9.99967 8.70302C9.50409 8.70302 9.02609 8.88185 8.65842 9.20493C8.29076 9.5281 8.05957 9.97235 8.00967 10.4518L8.00234 10.5503L7.99967 10.6475L8.00234 10.7447C8.02191 11.1247 8.15569 11.4907 8.38709 11.7975C8.61859 12.1043 8.93742 12.3383 9.30434 12.4706C9.67126 12.6028 10.07 12.6276 10.4512 12.5418C10.8324 12.4559 11.1793 12.2632 11.449 11.9875C11.7187 11.7118 11.8993 11.3653 11.9684 10.9909C12.0375 10.6164 11.9921 10.2305 11.8378 9.88085C11.6836 9.53127 11.4272 9.23327 11.1004 9.02393C10.7737 8.8146 10.391 8.70302 9.99967 8.70302Z" fill="#2E5902"/>
</g>
<defs>
<clipPath id="clip0_3317_4084">
<rect width="20" height="20" fill="white"/>
</clipPath>
</defs>
</svg>
