<svg width="20" height="20" viewBox="0 0 20 20" fill="none" xmlns="http://www.w3.org/2000/svg">
<g clip-path="url(#clip0_3317_4077)">
<path d="M10.0003 19.5827C15.2931 19.5827 19.5837 15.2921 19.5837 9.99935C19.5837 4.70662 15.2931 0.416016 10.0003 0.416016C4.7076 0.416016 0.416992 4.70662 0.416992 9.99935C0.416992 15.2921 4.7076 19.5827 10.0003 19.5827Z" fill="white"/>
<path d="M5 15.2776C5 15.6459 5.14633 15.9992 5.4068 16.2597C5.66727 16.5201 6.02053 16.6664 6.38889 16.6664C6.75724 16.6664 7.11052 16.5201 7.37098 16.2597C7.63145 15.9992 7.77778 15.6459 7.77778 15.2776C7.77778 14.9092 7.63145 14.5559 7.37098 14.2955C7.11052 14.035 6.75724 13.8887 6.38889 13.8887C6.02053 13.8887 5.66727 14.035 5.4068 14.2955C5.14633 14.5559 5 14.9092 5 15.2776Z" stroke="#2E5902" stroke-linecap="round" stroke-linejoin="round"/>
<path d="M11.8057 15.2776C11.8057 15.6459 11.952 15.9992 12.2125 16.2597C12.473 16.5201 12.8262 16.6664 13.1946 16.6664C13.5629 16.6664 13.9162 16.5201 14.1767 16.2597C14.4372 15.9992 14.5835 15.6459 14.5835 15.2776C14.5835 14.9092 14.4372 14.5559 14.1767 14.2955C13.9162 14.035 13.5629 13.8887 13.1946 13.8887C12.8262 13.8887 12.473 14.035 12.2125 14.2955C11.952 14.5559 11.8057 14.9092 11.8057 15.2776Z" stroke="#2E5902" stroke-linecap="round" stroke-linejoin="round"/>
<path d="M13.3333 13.334H6.28205V3.33398H5" stroke="#2E5902" stroke-linecap="round" stroke-linejoin="round"/>
<path d="M6.66699 5.83398L15.8337 6.45898L15.1789 10.834H6.66699" fill="#2E5902"/>
<path d="M6.66699 5.83398L15.8337 6.45898L15.1789 10.834H6.66699" stroke="#2E5902" stroke-linecap="round" stroke-linejoin="round"/>
</g>
<defs>
<clipPath id="clip0_3317_4077">
<rect width="20" height="20" fill="white"/>
</clipPath>
</defs>
</svg>
