<svg width="20" height="21" viewBox="0 0 20 21" fill="none" xmlns="http://www.w3.org/2000/svg">
<g clip-path="url(#clip0_3317_4090)">
<path d="M10.0003 20.0827C15.2931 20.0827 19.5837 15.7921 19.5837 10.4993C19.5837 5.20662 15.2931 0.916016 10.0003 0.916016C4.7076 0.916016 0.416992 5.20662 0.416992 10.4993C0.416992 15.7921 4.7076 20.0827 10.0003 20.0827Z" fill="white"/>
<path d="M14.9926 4.875L10.9301 16.125C10.9026 16.1848 10.8586 16.2356 10.8032 16.2711C10.7478 16.3067 10.6833 16.3256 10.6176 16.3256C10.5517 16.3256 10.4872 16.3067 10.4319 16.2711C10.3765 16.2356 10.3325 16.1848 10.3051 16.125L8.11753 11.75L3.74253 9.5625C3.6827 9.53508 3.63199 9.49108 3.59644 9.43567C3.56089 9.38025 3.54199 9.31583 3.54199 9.25C3.54199 9.18417 3.56089 9.11975 3.59644 9.06433C3.63199 9.00892 3.6827 8.96492 3.74253 8.9375L14.9926 4.875Z" fill="#2E5902" stroke="#2E5902" stroke-width="1.5" stroke-linecap="round" stroke-linejoin="round"/>
<path d="M8.54199 11.127L14.167 5.50195" stroke="white" stroke-width="0.5" stroke-linecap="round" stroke-linejoin="round"/>
</g>
<defs>
<clipPath id="clip0_3317_4090">
<rect width="20" height="20" fill="white" transform="translate(0 0.5)"/>
</clipPath>
</defs>
</svg>
