<svg width="88" height="28" viewBox="0 0 88 28" fill="none" xmlns="http://www.w3.org/2000/svg">
<path d="M10.233 1.9926L21.3132 0L15.3323 20.486L0 20.486L10.233 1.9926Z" fill="#A3BF3B"/>
<path d="M29.6179 7.51397L21.3132 0L15.3323 20.486L23.637 28L29.6179 7.51397Z" fill="#2E5902"/>
<path d="M40.712 26.0135L23.6314 27.9633L29.6123 7.47727L40.712 5.41773L40.712 26.0135Z" fill="#BFBB78"/>
<path d="M16.5245 16.4022C17.1896 16.5917 17.9037 16.5124 18.5096 16.1818C19.1156 15.8512 19.5637 15.2964 19.7555 14.6395C19.9473 13.9825 19.8671 13.2772 19.5324 12.6787C19.1977 12.0802 18.636 11.6375 17.9709 11.4481L16.5245 16.4022Z" fill="#A3BF3B"/>
<path d="M26.2098 19.1252C26.8749 19.3147 27.5889 19.2354 28.1949 18.9048C28.8008 18.5742 29.249 18.0194 29.4408 17.3625C29.6326 16.7055 29.5523 16.0002 29.2176 15.4017C28.8829 14.8032 28.3212 14.3606 27.6561 14.1711L26.2098 19.1252Z" fill="#2E5902"/>
<path d="M29.1097 9.25466C28.4446 9.06521 27.7305 9.1445 27.1246 9.47508C26.5187 9.80567 26.0705 10.3605 25.8787 11.0174C25.6869 11.6744 25.7672 12.3797 26.1019 12.9782C26.4365 13.5767 26.9982 14.0193 27.6634 14.2088L29.1097 9.25466Z" fill="#BFBB78"/>
<path d="M19.4733 6.50675C18.8082 6.3173 18.0941 6.39659 17.4882 6.72718C16.8823 7.05776 16.4341 7.61255 16.2423 8.26951C16.0505 8.92647 16.1308 9.63178 16.4655 10.2303C16.8002 10.8288 17.3618 11.2714 18.027 11.4609L19.4733 6.50675Z" fill="#2E5902"/>
<path d="M46.2346 2.57699H57.2476V5.2531H49.2951V12.2159C49.2951 13.2071 49.5293 13.8926 49.9975 14.2726C50.4825 14.6525 51.2268 14.8425 52.2302 14.8425C53.886 14.8425 55.3577 14.7186 56.6455 14.4708C57.95 14.2065 59.129 13.81 60.1827 13.2814V0.545132H63.168V8.99469H66.931V11.6212H63.168V23.8372H60.1827V15.9823C59.1792 16.4614 57.9918 16.833 56.6204 17.0973C55.249 17.3617 53.6769 17.4938 51.9041 17.4938C51.1013 17.4938 50.3488 17.4029 49.6463 17.2212C48.9606 17.0395 48.3669 16.767 47.8652 16.4035C47.3634 16.0236 46.9621 15.5445 46.661 14.9664C46.3767 14.3882 46.2346 13.7027 46.2346 12.9097V2.57699Z" fill="black"/>
<path d="M87.5 12.7363H84.5147V0.545132H87.5V12.7363ZM87.5 23.3416H76.2612C75.2578 23.3416 74.4466 23.1268 73.8278 22.6973C73.2257 22.2678 72.9247 21.6319 72.9247 20.7894V14.0743H87.5V23.3416ZM84.5147 20.715V16.7257H75.91V20.0212C75.91 20.4838 76.1609 20.715 76.6626 20.715H84.5147ZM73.0752 1.48672V8.49911C73.0752 8.96165 73.3177 9.19292 73.8027 9.19292H82.7336V11.7699H73.3763C72.3728 11.7699 71.57 11.5552 70.9679 11.1257C70.3659 10.6796 70.0648 10.0354 70.0648 9.19292V1.48672H73.0752Z" fill="black"/>
</svg>
