<svg width="18" height="18" viewBox="0 0 18 18" fill="none" xmlns="http://www.w3.org/2000/svg">
<g clip-path="url(#clip0_840_1409)">
<rect x="0.764893" y="0.764648" width="16.4702" height="16.4702" rx="8.23511" fill="#B5BF69"/>
<path d="M6.25488 7.5296C6.25488 8.28363 6.55442 9.00677 7.0876 9.53995C7.62078 10.0731 8.34393 10.3727 9.09796 10.3727C9.85199 10.3727 10.5751 10.0731 11.1083 9.53995C11.6415 9.00677 11.941 8.28363 11.941 7.5296C11.941 6.77557 11.6415 6.05242 11.1083 5.51924C10.5751 4.98606 9.85199 4.68652 9.09796 4.68652C8.34393 4.68652 7.62078 4.98606 7.0876 5.51924C6.55442 6.05242 6.25488 6.77557 6.25488 7.5296Z" fill="#2E5902" stroke="#2E5902" stroke-width="1.5" stroke-linecap="round" stroke-linejoin="round"/>
<path d="M1.54907 17.2239C1.86523 15.753 2.51216 14.4637 3.39389 13.5473C4.27562 12.6309 5.34518 12.1363 6.4439 12.1367H11.5533C12.6535 12.1362 13.7243 12.632 14.6067 13.5505C15.4891 14.469 16.1358 15.7611 16.4507 17.2346" fill="#2E5902"/>
<path d="M1.54907 17.2239C1.86523 15.753 2.51216 14.4637 3.39389 13.5473C4.27562 12.6309 5.34518 12.1363 6.4439 12.1367H11.5533C12.6535 12.1362 13.7243 12.632 14.6067 13.5505C15.4891 14.469 16.1358 15.7611 16.4507 17.2346" stroke="#2E5902" stroke-width="1.5" stroke-linecap="round" stroke-linejoin="round"/>
</g>
<defs>
<clipPath id="clip0_840_1409">
<rect x="0.764893" y="0.764648" width="16.4702" height="16.4702" rx="8.23511" fill="white"/>
</clipPath>
</defs>
</svg>
