<svg width="88" height="28" viewBox="0 0 88 28" fill="none" xmlns="http://www.w3.org/2000/svg">
<path d="M10.2206 1.9926L21.2874 0L15.3137 20.486L0 20.486L10.2206 1.9926Z" fill="#A3BF3B"/>
<path d="M29.582 7.51397L21.2874 0L15.3137 20.486L23.6084 28L29.582 7.51397Z" fill="#2E5902"/>
<path d="M40.6627 26.0135L23.6027 27.9633L29.5764 7.47727L40.6627 5.41773L40.6627 26.0135Z" fill="#BFBB78"/>
<path d="M16.5045 16.4022C17.1688 16.5917 17.882 16.5124 18.4872 16.1818C19.0924 15.8512 19.54 15.2964 19.7316 14.6395C19.9232 13.9825 19.843 13.2772 19.5087 12.6787C19.1744 12.0802 18.6134 11.6375 17.9491 11.4481L16.5045 16.4022Z" fill="#A3BF3B"/>
<path d="M26.178 19.1252C26.8423 19.3147 27.5555 19.2354 28.1607 18.9048C28.7659 18.5742 29.2135 18.0194 29.4051 17.3625C29.5966 16.7055 29.5165 16.0002 29.1822 15.4017C28.8479 14.8032 28.2869 14.3606 27.6226 14.1711L26.178 19.1252Z" fill="#2E5902"/>
<path d="M29.0744 9.25466C28.4101 9.06521 27.6969 9.1445 27.0917 9.47508C26.4865 9.80567 26.0389 10.3605 25.8473 11.0174C25.6558 11.6744 25.7359 12.3797 26.0702 12.9782C26.4045 13.5767 26.9655 14.0193 27.6298 14.2088L29.0744 9.25466Z" fill="#BFBB78"/>
<path d="M19.4497 6.50675C18.7854 6.3173 18.0722 6.39659 17.467 6.72718C16.8618 7.05776 16.4142 7.61255 16.2226 8.26951C16.031 8.92647 16.1112 9.63178 16.4455 10.2303C16.7798 10.8288 17.3408 11.2714 18.0051 11.4609L19.4497 6.50675Z" fill="#2E5902"/>
<path d="M46.1785 2.57699H57.1782V5.2531H49.2354V12.2159C49.2354 13.2071 49.4692 13.8926 49.9369 14.2726C50.4214 14.6525 51.1647 14.8425 52.1669 14.8425C53.8206 14.8425 55.2906 14.7186 56.5768 14.4708C57.8797 14.2065 59.0574 13.81 60.1097 13.2814V0.545132H63.0914V8.99469H66.8498V11.6212H63.0914V23.8372H60.1097V15.9823C59.1075 16.4614 57.9215 16.833 56.5518 17.0973C55.182 17.3617 53.6118 17.4938 51.8412 17.4938C51.0394 17.4938 50.2877 17.403 49.5861 17.2212C48.9013 17.0395 48.3083 16.767 47.8072 16.4035C47.306 16.0236 46.9051 15.5445 46.6045 14.9664C46.3205 14.3882 46.1785 13.7027 46.1785 12.9097V2.57699Z" fill="black"/>
<path d="M87.3939 12.7363H84.4123V0.545132H87.3939V12.7363ZM87.3939 23.3416H76.1688C75.1665 23.3416 74.3564 23.1268 73.7383 22.6973C73.137 22.2678 72.8363 21.6319 72.8363 20.7894V14.0743H87.3939V23.3416ZM84.4123 20.715V16.7257H75.818V20.0212C75.818 20.4838 76.0686 20.715 76.5697 20.715H84.4123ZM72.9866 1.48672V8.49911C72.9866 8.96165 73.2289 9.19292 73.7133 9.19292H82.6333V11.7699H73.2873C72.2851 11.7699 71.4833 11.5552 70.8819 11.1257C70.2806 10.6796 69.9799 10.0354 69.9799 9.19292V1.48672H72.9866Z" fill="black"/>
</svg>
