<svg width="24" height="24" viewBox="0 0 24 24" fill="none" xmlns="http://www.w3.org/2000/svg">
<circle cx="12" cy="12" r="12" fill="#F5F5F5"/>
<path d="M7.61823 7.34726C10.2892 5.41843 14.1066 5.57609 16.5761 7.72117C19.0888 9.90252 19.4321 13.4679 17.3655 16.0204C15.4181 18.4249 11.9077 19.2174 8.98457 17.9771L8.82559 17.9066L5.82775 18.5561L5.77636 18.5652L5.70098 18.5714L5.62355 18.5686L5.5934 18.5652L5.51803 18.5512L5.44608 18.5275L5.37756 18.4968L5.32548 18.4675L5.25148 18.4138L5.19597 18.3622L5.14595 18.3043L5.10964 18.2519L5.0651 18.1717L5.03632 18.0978L5.01507 18.0189L5.00617 17.9666L5 17.8899L5.00274 17.8111L5.00617 17.7804L5.01987 17.7036L5.03495 17.6534L5.82295 15.246L5.80788 15.2209C4.29354 12.6071 4.97944 9.36677 7.45995 7.46515L7.61755 7.34796L7.61823 7.34726Z" fill="#B5BF69"/>
</svg>
