<svg width="31" height="24" viewBox="0 0 31 24" fill="none" xmlns="http://www.w3.org/2000/svg">
<g clip-path="url(#clip0_1592_2331)">
<path d="M9.33331 17.7337L14.0045 0.0393259L13.9615 0L4.685 2.07133L0 19.8177L9.27006 17.7478L9.33331 17.7337Z" fill="#A3BF3B"/>
<path d="M20.839 6.32775L20.8503 6.28492L14.0044 0.0390625L9.33318 17.7334L9.31787 17.7912L16.1228 23.9997L16.1768 23.9877L20.839 6.32775Z" fill="#2E5902"/>
<path d="M25.4393 21.9197L30.1015 4.25977L20.8857 6.31755L20.839 6.32798L16.1768 23.9879L25.4393 21.9197Z" fill="#BFBB78"/>
<path d="M12.8947 5.44141L9.76378 6.04657C9.31456 6.12809 8.89712 6.38879 8.62426 6.80456C8.09591 7.60971 8.31019 8.69269 9.1029 9.22346C9.49805 9.48804 9.96243 9.56547 10.3942 9.47681L10.3942 9.47718L13.5252 8.87202L12.8947 5.44141Z" fill="#2E5902"/>
<path d="M20.8444 11.0742L17.7135 11.6794C17.2643 11.7609 16.8468 12.0216 16.574 12.4374C16.0456 13.2425 16.2599 14.3255 17.0526 14.8563C17.4478 15.1209 17.9121 15.1983 18.3439 15.1096L18.344 15.11L21.4749 14.5048L20.8444 11.0742Z" fill="#BFBB78"/>
<path d="M9.12612 13.2756L12.257 12.6705C12.7062 12.589 13.1237 12.3283 13.3965 11.9125C13.9249 11.1073 13.7106 10.0244 12.9179 9.49354C12.5227 9.22895 12.0584 9.15152 11.6265 9.24018L11.6265 9.23986L8.49561 9.84497L9.12612 13.2756Z" fill="#A3BF3B"/>
<path d="M17.0191 18.9182L20.1501 18.313C20.5992 18.2315 21.0167 17.9708 21.2895 17.5551C21.8179 16.7499 21.6036 15.6669 20.8109 15.1361C20.4157 14.8715 19.9514 14.7941 19.5196 14.8828L19.5196 14.8824L16.3887 15.4875L17.0191 18.9182Z" fill="#2E5902"/>
</g>
<defs>
<clipPath id="clip0_1592_2331">
<rect width="30.1017" height="24" fill="white"/>
</clipPath>
</defs>
</svg>
