<svg width="232" height="232" viewBox="0 0 232 232" fill="none" xmlns="http://www.w3.org/2000/svg">
<g clip-path="url(#clip0_2668_3986)">
<rect width="232" height="232" rx="116" fill="#F5F5F5"/>
<path d="M77.333 95.2859C77.333 105.907 81.5523 116.093 89.0627 123.604C96.5731 131.114 106.759 135.334 117.381 135.334C128.002 135.334 138.188 131.114 145.699 123.604C153.209 116.093 157.428 105.907 157.428 95.2859C157.428 84.6646 153.209 74.4783 145.699 66.968C138.188 59.4576 128.002 55.2383 117.381 55.2383C106.759 55.2383 96.5731 59.4576 89.0627 66.968C81.5523 74.4783 77.333 84.6646 77.333 95.2859Z" fill="#B5BF69" stroke="#B5BF69" stroke-width="1.5" stroke-linecap="round" stroke-linejoin="round"/>
<path d="M11.0479 231.85C15.5012 211.13 24.6139 192.969 37.034 180.061C49.4541 167.153 64.5199 160.185 79.9965 160.191H151.968C167.464 160.184 182.549 167.169 194.978 180.107C207.407 193.045 216.517 211.245 220.953 232.001" fill="#B5BF69"/>
<path d="M11.0479 231.85C15.5012 211.13 24.6139 192.969 37.034 180.061C49.4541 167.153 64.5199 160.185 79.9965 160.191H151.968C167.464 160.184 182.549 167.169 194.978 180.107C207.407 193.045 216.517 211.245 220.953 232.001" stroke="#B5BF69" stroke-width="1.5" stroke-linecap="round" stroke-linejoin="round"/>
</g>
<defs>
<clipPath id="clip0_2668_3986">
<rect width="232" height="232" rx="116" fill="white"/>
</clipPath>
</defs>
</svg>
