<svg width="20" height="21" viewBox="0 0 20 21" fill="none" xmlns="http://www.w3.org/2000/svg">
<g clip-path="url(#clip0_3317_4049)">
<path d="M10.0003 20.0827C15.2931 20.0827 19.5837 15.7921 19.5837 10.4993C19.5837 5.20662 15.2931 0.916016 10.0003 0.916016C4.7076 0.916016 0.416992 5.20662 0.416992 10.4993C0.416992 15.7921 4.7076 20.0827 10.0003 20.0827Z" fill="#2E5902"/>
<path d="M14.1663 12.4438V4.66602C11.2997 7.64361 11.1764 10.0579 11.1902 12.4438H14.1663ZM14.1663 12.4438V16.3327H13.5711V14.3883M7.61872 5.31417V16.3327M5.83301 5.31417V7.25861C5.83301 7.77431 6.02114 8.26888 6.35603 8.63354C6.69092 8.99818 7.14512 9.20302 7.61872 9.20302C8.09232 9.20302 8.54651 8.99818 8.88142 8.63354C9.21626 8.26888 9.40442 7.77431 9.40442 7.25861V5.31417" stroke="white" stroke-width="1.5" stroke-linecap="round" stroke-linejoin="round"/>
</g>
<defs>
<clipPath id="clip0_3317_4049">
<rect width="20" height="20" fill="white" transform="translate(0 0.5)"/>
</clipPath>
</defs>
</svg>
