<svg width="20" height="20" viewBox="0 0 20 20" fill="none" xmlns="http://www.w3.org/2000/svg">
<g clip-path="url(#clip0_3317_4038)">
<path d="M10.0003 19.5827C15.2931 19.5827 19.5837 15.2921 19.5837 9.99935C19.5837 4.70662 15.2931 0.416016 10.0003 0.416016C4.7076 0.416016 0.416992 4.70662 0.416992 9.99935C0.416992 15.2921 4.7076 19.5827 10.0003 19.5827Z" fill="#2E5902"/>
<path d="M5 5.72904C5.00001 5.64349 5.0166 5.55879 5.04879 5.47991C5.08099 5.40103 5.12814 5.32955 5.1875 5.26966C5.86865 4.58229 6.77866 4.18794 7.73228 4.1669C8.68592 4.14587 9.6115 4.49972 10.3206 5.15642L10.54 5.36745C10.9959 5.77864 11.5814 6.00534 12.1875 6.00534C12.7936 6.00534 13.3791 5.77864 13.835 5.36745L13.9907 5.2214C14.3719 4.91064 14.945 5.15899 14.9969 5.65634L15 5.72904V11.5196C15 11.6051 14.9834 11.6899 14.9512 11.7687C14.919 11.8476 14.8718 11.9191 14.8125 11.9789C14.1313 12.6664 13.2213 13.0607 12.2677 13.0817C11.3141 13.1028 10.3885 12.7489 9.67942 12.0922L9.46 11.8812C9.0185 11.4829 8.45483 11.2574 7.86795 11.2439C7.28104 11.2305 6.70827 11.4301 6.25 11.8079V16.0234C6.24982 16.1874 6.18883 16.345 6.07947 16.4643C5.97012 16.5835 5.82066 16.6553 5.66163 16.6649C5.5026 16.6745 5.34602 16.6213 5.22386 16.516C5.1017 16.4108 5.02319 16.2614 5.00437 16.0986L5 16.0234V5.72904Z" fill="white"/>
</g>
<defs>
<clipPath id="clip0_3317_4038">
<rect width="20" height="20" fill="white"/>
</clipPath>
</defs>
</svg>
