<svg width="20" height="21" viewBox="0 0 20 21" fill="none" xmlns="http://www.w3.org/2000/svg">
<g clip-path="url(#clip0_3317_4041)">
<path d="M10 20.5C15.5228 20.5 20 16.0228 20 10.5C20 4.97715 15.5228 0.5 10 0.5C4.47715 0.5 0 4.97715 0 10.5C0 16.0228 4.47715 20.5 10 20.5Z" fill="#2E5902"/>
<path d="M5 15.7776C5 16.1459 5.14633 16.4992 5.4068 16.7597C5.66727 17.0201 6.02053 17.1664 6.38889 17.1664C6.75724 17.1664 7.11052 17.0201 7.37098 16.7597C7.63145 16.4992 7.77778 16.1459 7.77778 15.7776C7.77778 15.4092 7.63145 15.0559 7.37098 14.7955C7.11052 14.535 6.75724 14.3887 6.38889 14.3887C6.02053 14.3887 5.66727 14.535 5.4068 14.7955C5.14633 15.0559 5 15.4092 5 15.7776Z" stroke="white" stroke-linecap="round" stroke-linejoin="round"/>
<path d="M11.8057 15.7776C11.8057 16.1459 11.952 16.4992 12.2125 16.7597C12.473 17.0201 12.8262 17.1664 13.1946 17.1664C13.5629 17.1664 13.9162 17.0201 14.1767 16.7597C14.4372 16.4992 14.5835 16.1459 14.5835 15.7776C14.5835 15.4092 14.4372 15.0559 14.1767 14.7955C13.9162 14.535 13.5629 14.3887 13.1946 14.3887C12.8262 14.3887 12.473 14.535 12.2125 14.7955C11.952 15.0559 11.8057 15.4092 11.8057 15.7776Z" stroke="white" stroke-linecap="round" stroke-linejoin="round"/>
<path d="M13.3333 13.834H6.28205V3.83398H5" stroke="white" stroke-linecap="round" stroke-linejoin="round"/>
<path d="M6.66699 6.33398L15.8337 6.95898L15.1789 11.334H6.66699" fill="white"/>
<path d="M6.66699 6.33398L15.8337 6.95898L15.1789 11.334H6.66699" stroke="white" stroke-linecap="round" stroke-linejoin="round"/>
</g>
<defs>
<clipPath id="clip0_3317_4041">
<rect width="20" height="20" fill="white" transform="translate(0 0.5)"/>
</clipPath>
</defs>
</svg>
