<svg width="20" height="20" viewBox="0 0 20 20" fill="none" xmlns="http://www.w3.org/2000/svg">
<g clip-path="url(#clip0_3317_4031)">
<path d="M10.0003 19.5827C15.2931 19.5827 19.5837 15.2921 19.5837 9.99935C19.5837 4.70662 15.2931 0.416016 10.0003 0.416016C4.7076 0.416016 0.416992 4.70662 0.416992 9.99935C0.416992 15.2921 4.7076 19.5827 10.0003 19.5827Z" fill="#2E5902"/>
<path d="M14.9926 4.375L10.9301 15.625C10.9026 15.6848 10.8586 15.7356 10.8032 15.7711C10.7478 15.8067 10.6833 15.8256 10.6176 15.8256C10.5517 15.8256 10.4872 15.8067 10.4319 15.7711C10.3765 15.7356 10.3325 15.6848 10.3051 15.625L8.11753 11.25L3.74253 9.0625C3.6827 9.03508 3.63199 8.99108 3.59644 8.93567C3.56089 8.88025 3.54199 8.81583 3.54199 8.75C3.54199 8.68417 3.56089 8.61975 3.59644 8.56433C3.63199 8.50892 3.6827 8.46492 3.74253 8.4375L14.9926 4.375Z" fill="white" stroke="white" stroke-width="1.5" stroke-linecap="round" stroke-linejoin="round"/>
<path d="M8.54199 10.627L14.167 5.00195" stroke="#2E5902" stroke-width="0.5" stroke-linecap="round" stroke-linejoin="round"/>
</g>
<defs>
<clipPath id="clip0_3317_4031">
<rect width="20" height="20" fill="white"/>
</clipPath>
</defs>
</svg>
