<svg width="232" height="232" viewBox="0 0 232 232" fill="none" xmlns="http://www.w3.org/2000/svg">
<g clip-path="url(#clip0_785_733)">
<rect width="232" height="232" rx="116" fill="#F5F5F5"/>
<path d="M77.3335 95.2859C77.3335 105.907 81.5528 116.093 89.0632 123.604C96.5736 131.114 106.76 135.334 117.381 135.334C128.002 135.334 138.189 131.114 145.699 123.604C153.209 116.093 157.429 105.907 157.429 95.2859C157.429 84.6646 153.209 74.4783 145.699 66.968C138.189 59.4576 128.002 55.2383 117.381 55.2383C106.76 55.2383 96.5736 59.4576 89.0632 66.968C81.5528 74.4783 77.3335 84.6646 77.3335 95.2859Z" fill="#B5BF69" stroke="#B5BF69" stroke-width="1.5" stroke-linecap="round" stroke-linejoin="round"/>
<path d="M11.0479 231.849C15.5012 211.129 24.6139 192.968 37.034 180.06C49.4541 167.152 64.5199 160.184 79.9965 160.19H151.968C167.464 160.183 182.549 167.168 194.978 180.106C207.407 193.044 216.517 211.244 220.953 232" fill="#B5BF69"/>
<path d="M11.0479 231.849C15.5012 211.129 24.6139 192.968 37.034 180.06C49.4541 167.152 64.5199 160.184 79.9965 160.19H151.968C167.464 160.183 182.549 167.168 194.978 180.106C207.407 193.044 216.517 211.244 220.953 232" stroke="#B5BF69" stroke-width="1.5" stroke-linecap="round" stroke-linejoin="round"/>
</g>
<defs>
<clipPath id="clip0_785_733">
<rect width="232" height="232" rx="116" fill="white"/>
</clipPath>
</defs>
</svg>
