<svg width="87" height="50" viewBox="0 0 87 50" fill="none" xmlns="http://www.w3.org/2000/svg">
<path d="M0 4.3617H23.2187V10.1064H6.45259V25.0532C6.45259 27.1809 6.94623 28.6525 7.93351 29.4681C8.95605 30.2837 10.5251 30.6915 12.6407 30.6915C16.1315 30.6915 19.2344 30.4255 21.9494 29.8936C24.6997 29.3262 27.1855 28.4752 29.4069 27.3404V0H35.7008V18.1383H43.6343V23.7766H35.7008V50H29.4069V33.1383C27.2913 34.1667 24.7878 34.9645 21.8965 35.5319C19.0052 36.0993 15.6907 36.383 11.9532 36.383C10.2607 36.383 8.67397 36.1879 7.19305 35.7979C5.74739 35.4078 4.49565 34.8227 3.43785 34.0426C2.38005 33.227 1.53381 32.1986 0.899131 30.9574C0.29971 29.7163 0 28.2447 0 26.5426V4.3617Z" fill="white"/>
<path d="M87 26.1702H80.7061V0H87V26.1702ZM87 48.9362H63.3053C61.1897 48.9362 59.4795 48.4752 58.1749 47.5532C56.9056 46.6312 56.2709 45.266 56.2709 43.4574V29.0426H87V48.9362ZM80.7061 43.2979V34.734H62.5648V41.8085C62.5648 42.8014 63.0937 43.2979 64.1515 43.2979H80.7061ZM56.5882 2.02128V17.0745C56.5882 18.0674 57.0995 18.5638 58.122 18.5638H76.9509V24.0957H57.2229C55.1073 24.0957 53.4148 23.6348 52.1455 22.7128C50.8761 21.7553 50.2414 20.3723 50.2414 18.5638V2.02128H56.5882Z" fill="white"/>
</svg>
