<svg width="134" height="107" viewBox="0 0 134 107" fill="none" xmlns="http://www.w3.org/2000/svg">
<path d="M44.2071 76.1957L62.8288 6.15566L62.6572 6L25.6767 14.199L7 84.4449L44.2071 76.1957Z" fill="#A3BF3B"/>
<path d="M90.1203 30.8794L62.8288 6.15566L44.2071 76.1957L44.1465 76.4253L71.2742 101.001L71.4895 100.953L90.1203 30.8794Z" fill="#2E5902"/>
<path d="M108.414 92.7652L127 22.8613L90.075 31.048L71.2742 101.001L108.414 92.7652Z" fill="#BFBB78"/>
<path d="M58.4038 27.541L45.9225 29.9364C44.1317 30.2592 42.4676 31.2911 41.3799 32.9368C39.2736 36.1239 40.1278 40.4107 43.2879 42.5116C44.8632 43.5589 46.7144 43.8654 48.4356 43.5145L48.4358 43.516L60.9173 41.1205L58.4038 27.541Z" fill="#2E5902"/>
<path d="M90.0961 49.834L77.6149 52.2294C75.8243 52.5521 74.16 53.5841 73.0722 55.2298C70.966 58.4168 71.8202 62.7036 74.9803 64.8046C76.5558 65.8519 78.4068 66.1584 80.1282 65.8075L92.6097 63.4135L90.0961 49.834Z" fill="#BFBB78"/>
<path d="M43.3807 58.548L55.862 56.1528C57.6526 55.8301 59.3169 54.7981 60.4046 53.1524C62.5109 49.9653 61.6567 45.6785 58.4965 43.5774C56.9211 42.5301 55.07 42.2236 53.3487 42.5745L53.3484 42.5732L40.8672 44.9685L43.3807 58.548Z" fill="#A3BF3B"/>
<path d="M74.8473 80.8839L87.3288 78.4885C89.1194 78.166 90.7835 77.1341 91.8712 75.4883C93.9777 72.3011 93.1233 68.0143 89.9631 65.9133C88.3879 64.866 86.5368 64.5595 84.8154 64.9104L84.8152 64.9092L72.334 67.3044L74.8473 80.8839Z" fill="#2E5902"/>
<path d="M71.8154 103.441L71.8161 103.441L72.0315 103.393L108.956 95.2059L110.44 94.8768L110.83 93.4075L129.416 23.5037L130.473 19.5308L126.459 20.4206L90.9815 28.2863L64.5083 4.30381L64.5073 4.30289L64.3367 4.14815L63.3787 3.27933L62.1161 3.55927L25.1355 11.7583L23.6513 12.0874L23.2606 13.5567L4.58394 83.8026L3.52763 87.7755L7.54114 86.8857L43.2342 78.9721L69.5958 102.853L70.5536 103.721L71.8154 103.441Z" stroke="white" stroke-width="5"/>
</svg>
