<svg width="182" height="12" viewBox="0 0 182 12" fill="none" xmlns="http://www.w3.org/2000/svg">
<path d="M10.524 11.378H9.22401V5.957L7.23501 6.659C7.19167 7.491 7.06601 8.206 6.85801 8.804C6.65001 9.39333 6.38567 9.87867 6.06501 10.26C5.74434 10.65 5.38034 10.9317 4.97301 11.105C4.57434 11.287 4.16267 11.378 3.73801 11.378C3.27001 11.378 2.82367 11.2783 2.39901 11.079C1.98301 10.8797 1.61034 10.5633 1.28101 10.13C0.960341 9.70533 0.704675 9.15933 0.514008 8.492C0.323341 7.816 0.228008 7.01 0.228008 6.074C0.228008 5.138 0.323341 4.33633 0.514008 3.669C0.704675 3.00167 0.960341 2.45567 1.28101 2.031C1.61034 1.59767 1.98301 1.28133 2.39901 1.082C2.82367 0.873999 3.27001 0.77 3.73801 0.77C4.17134 0.77 4.59167 0.865333 4.99901 1.056C5.40634 1.238 5.77034 1.52833 6.09101 1.927C6.41167 2.317 6.67167 2.81967 6.87101 3.435C7.07901 4.04167 7.20034 4.774 7.23501 5.632L9.22401 4.93V0.64H10.524V11.378ZM1.52801 6.074C1.52801 6.86267 1.58434 7.53 1.69701 8.076C1.81834 8.61333 1.97867 9.04667 2.17801 9.376C2.37734 9.70533 2.61134 9.94367 2.88001 10.091C3.14867 10.2383 3.43467 10.312 3.73801 10.312C4.03267 10.312 4.31434 10.2383 4.58301 10.091C4.85167 9.95233 5.08567 9.71833 5.28501 9.389C5.48434 9.051 5.64034 8.61333 5.75301 8.076C5.87434 7.53 5.93501 6.85833 5.93501 6.061C5.93501 5.27233 5.87434 4.60933 5.75301 4.072C5.64034 3.53467 5.48434 3.10133 5.28501 2.772C5.08567 2.44267 4.85167 2.20433 4.58301 2.057C4.31434 1.90967 4.03267 1.836 3.73801 1.836C3.43467 1.836 3.14867 1.90967 2.88001 2.057C2.61134 2.20433 2.37734 2.44267 2.17801 2.772C1.97867 3.10133 1.81834 3.539 1.69701 4.085C1.58434 4.62233 1.52801 5.28533 1.52801 6.074ZM14.218 0.899999V6.971H22.109V8.037H12.918V0.899999H14.218ZM12.281 10.312H22.746V11.378H12.281V10.312ZM33.3171 7.153V8.089C33.3171 8.47033 33.2607 8.817 33.1481 9.129L37.7631 10.689L37.2301 11.651L32.5371 10.052C32.1471 10.442 31.5837 10.7713 30.8471 11.04C30.1104 11.3173 29.1484 11.5427 27.9611 11.716L27.4671 10.65C28.3597 10.5287 29.0964 10.3857 29.6771 10.221C30.2664 10.065 30.7344 9.883 31.0811 9.675C31.4277 9.45833 31.6661 9.22 31.7961 8.96C31.9347 8.69133 32.0041 8.39667 32.0041 8.076V7.153H33.3171ZM27.3631 5.333H31.6661V3.24H32.9661V5.333H37.8281V6.399H27.3631V5.333ZM35.7611 4.592V1.836H28.1301V0.77H37.0611V4.592H35.7611ZM46.9401 11.378V6.061L45.5621 6.542C45.5361 7.4 45.4321 8.13667 45.2501 8.752C45.0767 9.35867 44.8471 9.857 44.5611 10.247C44.2751 10.637 43.9414 10.923 43.5601 11.105C43.1787 11.287 42.7714 11.378 42.3381 11.378C41.8701 11.378 41.4367 11.2783 41.0381 11.079C40.6481 10.8797 40.3101 10.5633 40.0241 10.13C39.7381 9.70533 39.5127 9.15933 39.3481 8.492C39.1834 7.816 39.1011 7.01 39.1011 6.074C39.1011 5.138 39.1834 4.33633 39.3481 3.669C39.5127 3.00167 39.7381 2.45567 40.0241 2.031C40.3101 1.59767 40.6481 1.28133 41.0381 1.082C41.4367 0.873999 41.8701 0.77 42.3381 0.77C42.7714 0.77 43.1744 0.861 43.5471 1.043C43.9284 1.225 44.2621 1.50667 44.5481 1.888C44.8341 2.26933 45.0637 2.76333 45.2371 3.37C45.4191 3.968 45.5274 4.683 45.5621 5.515L46.9401 5.034V0.64H48.2401V11.378H46.9401ZM40.4011 6.074C40.4011 6.86267 40.4444 7.53 40.5311 8.076C40.6177 8.61333 40.7434 9.04667 40.9081 9.376C41.0727 9.70533 41.2764 9.94367 41.5191 10.091C41.7617 10.2383 42.0347 10.312 42.3381 10.312C42.6327 10.312 42.8971 10.2383 43.1311 10.091C43.3737 9.95233 43.5774 9.71833 43.7421 9.389C43.9154 9.051 44.0454 8.61333 44.1321 8.076C44.2187 7.53 44.2621 6.85833 44.2621 6.061C44.2621 5.27233 44.2187 4.60933 44.1321 4.072C44.0454 3.53467 43.9154 3.10133 43.7421 2.772C43.5774 2.44267 43.3737 2.20433 43.1311 2.057C42.8971 1.90967 42.6327 1.836 42.3381 1.836C42.0347 1.836 41.7617 1.90967 41.5191 2.057C41.2764 2.20433 41.0727 2.44267 40.9081 2.772C40.7434 3.10133 40.6177 3.539 40.5311 4.085C40.4444 4.62233 40.4011 5.28533 40.4011 6.074ZM50.8791 11.378H49.5791V0.64H50.8791V11.378ZM56.0625 5.437C56.0625 6.13033 55.9888 6.78467 55.8415 7.4L59.3515 10.13L58.6885 11.118L55.3995 8.557C55.1048 9.11167 54.6975 9.60567 54.1775 10.039C53.6662 10.481 53.0162 10.871 52.2275 11.209L51.6295 10.169C52.1928 9.909 52.6738 9.64467 53.0725 9.376C53.4712 9.09867 53.7918 8.78233 54.0345 8.427C54.2858 8.063 54.4678 7.64267 54.5805 7.166C54.6932 6.68067 54.7495 6.1 54.7495 5.424V0.744H56.0625V5.437ZM62.0035 11.378H60.7035V5.359L57.9345 6.321V5.307L60.7035 4.332V0.64H62.0035V11.378ZM65.2295 0.899999V10.182H70.8065V11.248H63.9295V0.899999H65.2295ZM73.4455 4.904H74.9665V5.97H73.4455V11.378H72.1455V0.64H73.4455V4.904ZM89.1842 11.378H87.8842V5.957L85.8952 6.659C85.8518 7.491 85.7262 8.206 85.5182 8.804C85.3102 9.39333 85.0458 9.87867 84.7252 10.26C84.4045 10.65 84.0405 10.9317 83.6332 11.105C83.2345 11.287 82.8228 11.378 82.3982 11.378C81.9302 11.378 81.4838 11.2783 81.0592 11.079C80.6432 10.8797 80.2705 10.5633 79.9412 10.13C79.6205 9.70533 79.3648 9.15933 79.1742 8.492C78.9835 7.816 78.8882 7.01 78.8882 6.074C78.8882 5.138 78.9835 4.33633 79.1742 3.669C79.3648 3.00167 79.6205 2.45567 79.9412 2.031C80.2705 1.59767 80.6432 1.28133 81.0592 1.082C81.4838 0.873999 81.9302 0.77 82.3982 0.77C82.8315 0.77 83.2518 0.865333 83.6592 1.056C84.0665 1.238 84.4305 1.52833 84.7512 1.927C85.0718 2.317 85.3318 2.81967 85.5312 3.435C85.7392 4.04167 85.8605 4.774 85.8952 5.632L87.8842 4.93V0.64H89.1842V11.378ZM80.1882 6.074C80.1882 6.86267 80.2445 7.53 80.3572 8.076C80.4785 8.61333 80.6388 9.04667 80.8382 9.376C81.0375 9.70533 81.2715 9.94367 81.5402 10.091C81.8088 10.2383 82.0948 10.312 82.3982 10.312C82.6928 10.312 82.9745 10.2383 83.2432 10.091C83.5118 9.95233 83.7458 9.71833 83.9452 9.389C84.1445 9.051 84.3005 8.61333 84.4132 8.076C84.5345 7.53 84.5952 6.85833 84.5952 6.061C84.5952 5.27233 84.5345 4.60933 84.4132 4.072C84.3005 3.53467 84.1445 3.10133 83.9452 2.772C83.7458 2.44267 83.5118 2.20433 83.2432 2.057C82.9745 1.90967 82.6928 1.836 82.3982 1.836C82.0948 1.836 81.8088 1.90967 81.5402 2.057C81.2715 2.20433 81.0375 2.44267 80.8382 2.772C80.6388 3.10133 80.4785 3.539 80.3572 4.085C80.2445 4.62233 80.1882 5.28533 80.1882 6.074ZM92.8782 0.899999V6.971H100.769V8.037H91.5782V0.899999H92.8782ZM90.9412 10.312H101.406V11.378H90.9412V10.312ZM107.96 0.899999V5.606H115.851V6.672H106.66V0.899999H107.96ZM110.599 11.781V9.324H106.023V8.258H116.488V9.324H111.899V11.781H110.599ZM122.558 9.376V6.789H117.982V5.723H128.447V6.789H123.858V9.376H122.558ZM119.919 7.673V10.572H127.94V11.638H118.619V7.673H119.919ZM126.38 4.982V1.836H118.749V0.77H127.68V4.982H126.38ZM135.037 11.248V1.966H130.11V0.899999H136.337V11.248H135.037ZM139.626 4.904H141.147V5.97H139.626V11.378H138.326V0.64H139.626V4.904ZM145.053 10.039V7.998C144.611 7.93733 144.208 7.81167 143.844 7.621C143.48 7.43033 143.168 7.179 142.908 6.867C142.648 6.54633 142.444 6.17367 142.297 5.749C142.149 5.31567 142.076 4.83033 142.076 4.293C142.076 3.68633 142.162 3.149 142.336 2.681C142.518 2.213 142.769 1.81867 143.09 1.498C143.41 1.17733 143.787 0.934666 144.221 0.77C144.654 0.605333 145.131 0.523 145.651 0.523C146.162 0.523 146.634 0.605333 147.068 0.77C147.51 0.934666 147.887 1.17733 148.199 1.498C148.519 1.81867 148.771 2.213 148.953 2.681C149.135 3.149 149.226 3.68633 149.226 4.293C149.226 4.82167 149.152 5.29833 149.005 5.723C148.866 6.14767 148.671 6.516 148.42 6.828C148.168 7.14 147.865 7.39567 147.51 7.595C147.163 7.78567 146.777 7.91567 146.353 7.985V10.039H149.824V11.105H141.842V10.039H145.053ZM145.651 6.984C145.997 6.984 146.309 6.919 146.587 6.789C146.864 6.65033 147.098 6.45967 147.289 6.217C147.488 5.97433 147.64 5.69267 147.744 5.372C147.856 5.04267 147.913 4.683 147.913 4.293C147.913 3.89433 147.856 3.53033 147.744 3.201C147.64 2.863 147.488 2.577 147.289 2.343C147.098 2.10033 146.864 1.914 146.587 1.784C146.309 1.654 145.997 1.589 145.651 1.589C145.287 1.589 144.966 1.65833 144.689 1.797C144.411 1.927 144.173 2.11333 143.974 2.356C143.783 2.59 143.636 2.87167 143.532 3.201C143.436 3.53033 143.389 3.89433 143.389 4.293C143.389 4.69167 143.441 5.05567 143.545 5.385C143.649 5.71433 143.796 6.00033 143.987 6.243C144.186 6.477 144.424 6.659 144.702 6.789C144.979 6.919 145.295 6.984 145.651 6.984ZM151.982 4.904H153.503V5.97H151.982V11.378H150.682V0.64H151.982V4.904ZM167.2 7.803V11.638H158.23V7.803H167.2ZM160.856 2.811C161.35 2.811 161.801 2.863 162.208 2.967C162.616 3.071 162.962 3.21833 163.248 3.409C163.543 3.591 163.768 3.81633 163.924 4.085C164.08 4.35367 164.158 4.657 164.158 4.995C164.158 5.333 164.08 5.63633 163.924 5.905C163.768 6.17367 163.543 6.40333 163.248 6.594C162.962 6.776 162.616 6.919 162.208 7.023C161.801 7.11833 161.35 7.166 160.856 7.166C160.362 7.166 159.912 7.11833 159.504 7.023C159.106 6.919 158.763 6.776 158.477 6.594C158.191 6.40333 157.97 6.17367 157.814 5.905C157.658 5.63633 157.58 5.333 157.58 4.995C157.58 4.657 157.658 4.35367 157.814 4.085C157.97 3.81633 158.191 3.591 158.477 3.409C158.763 3.21833 159.106 3.071 159.504 2.967C159.912 2.863 160.362 2.811 160.856 2.811ZM159.53 8.869V10.572H165.9V8.869H159.53ZM167.2 4.202V7.088H165.9V0.64H167.2V3.136H168.721V4.202H167.2ZM157.255 1.03H160.206V0.0159999H161.506V1.03H164.47V2.096H157.255V1.03ZM160.856 3.877C160.267 3.877 159.79 3.97667 159.426 4.176C159.062 4.36667 158.88 4.63967 158.88 4.995C158.88 5.34167 159.062 5.61467 159.426 5.814C159.79 6.00467 160.267 6.1 160.856 6.1C161.437 6.1 161.914 6.00467 162.286 5.814C162.668 5.61467 162.858 5.34167 162.858 4.995C162.858 4.82167 162.806 4.66567 162.702 4.527C162.598 4.38833 162.455 4.27133 162.273 4.176C162.091 4.08067 161.879 4.007 161.636 3.955C161.394 3.903 161.134 3.877 160.856 3.877ZM171.353 11.248V2.616H169.403V1.55H172.263V0.899999H175.825V5.671L177.359 5.125V0.64H178.659V11.378H177.359V6.152L175.825 6.685V11.248H174.525V1.966H172.653V11.248H171.353ZM181.298 11.378H179.998V0.64H181.298V11.378Z" fill="#2E5902"/>
</svg>
